<svg width="32" height="32" viewBox="0 0 32 32" fill="none" xmlns="http://www.w3.org/2000/svg">
<path fill-rule="evenodd" clip-rule="evenodd" d="M26 8.99999C27.6568 8.99999 29 7.65685 29 5.99999C29 4.34314 27.6568 3 26 3C24.3431 3 23 4.34314 23 5.99999C23 7.65685 24.3431 8.99999 26 8.99999ZM26 12C29.3137 12 32 9.3137 32 5.99999C32 2.68629 29.3137 0 26 0C22.6863 0 20 2.68629 20 5.99999C20 9.3137 22.6863 12 26 12Z" fill="white"/>
<path fill-rule="evenodd" clip-rule="evenodd" d="M26 29C27.6568 29 29 27.6568 29 26C29 24.3431 27.6568 23 26 23C24.3431 23 23 24.3431 23 26C23 27.6568 24.3431 29 26 29ZM26 32C29.3137 32 32 29.3137 32 26C32 22.6863 29.3137 20 26 20C22.6863 20 20 22.6863 20 26C20 29.3137 22.6863 32 26 32Z" fill="white"/>
<path fill-rule="evenodd" clip-rule="evenodd" d="M5.99999 8.99999C7.65684 8.99999 8.99999 7.65685 8.99999 5.99999C8.99999 4.34314 7.65684 3 5.99999 3C4.34314 3 3 4.34314 3 5.99999C3 7.65685 4.34314 8.99999 5.99999 8.99999ZM5.99999 12C9.3137 12 12 9.3137 12 5.99999C12 2.68629 9.3137 0 5.99999 0C2.68629 0 0 2.68629 0 5.99999C0 9.3137 2.68629 12 5.99999 12Z" fill="white"/>
<path fill-rule="evenodd" clip-rule="evenodd" d="M5.99999 29C7.65684 29 8.99999 27.6568 8.99999 26C8.99999 24.3431 7.65684 23 5.99999 23C4.34314 23 3 24.3431 3 26C3 27.6568 4.34314 29 5.99999 29ZM5.99999 32C9.3137 32 12 29.3137 12 26C12 22.6863 9.3137 20 5.99999 20C2.68629 20 0 22.6863 0 26C0 29.3137 2.68629 32 5.99999 32Z" fill="white"/>
<path d="M5.00024 11H8.00024V21H5.00024V11Z" fill="white"/>
<path d="M23.9998 11H26.9998V21H23.9998V11Z" fill="white"/>
<path d="M10.9998 28V25H20.9997V28H10.9998Z" fill="white"/>
<path d="M10.9998 8V5H20.9997V8H10.9998Z" fill="white"/>
</svg>
