<svg width="20" height="18" viewBox="0 0 20 18" fill="none" xmlns="http://www.w3.org/2000/svg">
<path d="M20 0L15.3191 18H12L16.6809 0H20Z" fill="#403AF4"/>
<path d="M5.23009 16H0V2H5.17699C6.57522 2 7.78319 2.28027 8.80089 2.84082C9.82301 3.39681 10.6106 4.19889 11.1637 5.24707C11.7212 6.29069 12 7.54167 12 9C12 10.4583 11.7235 11.7116 11.1704 12.7598C10.6173 13.8034 9.83407 14.6055 8.8208 15.166C7.80752 15.722 6.61062 16 5.23009 16ZM3.69027 12.7734H5.09734C5.76991 12.7734 6.34292 12.6618 6.81637 12.4385C7.29425 12.2152 7.65708 11.8301 7.90487 11.2832C8.15708 10.7363 8.28319 9.97526 8.28319 9C8.28319 8.02474 8.15487 7.26367 7.89823 6.7168C7.64602 6.16992 7.27434 5.78483 6.78319 5.56152C6.29646 5.33822 5.69912 5.22656 4.99115 5.22656H3.69027V12.7734Z" fill="white"/>
</svg>
