<svg width="14" height="11" viewBox="0 0 14 11" fill="none" xmlns="http://www.w3.org/2000/svg">
<path d="M5.12517 0.442774C5.2602 0.558248 5.34382 0.722637 5.35764 0.899771C5.37146 1.07691 5.31434 1.25227 5.19885 1.38729L2.12414 4.97111L12.7282 4.97111C13.0982 4.97111 13.3981 5.27102 13.3981 5.64098C13.3981 6.01094 13.0982 6.31085 12.7282 6.31085L2.12414 6.31085L5.19885 9.89467C5.43933 10.1758 5.40634 10.5987 5.12517 10.8392C4.844 11.0797 4.42112 11.0467 4.18065 10.7655L0.161418 6.0764C0.138802 6.04215 0.118655 6.00633 0.101129 5.96922L0.0475394 5.88883C-0.0158468 5.72968 -0.0158468 5.55228 0.0475394 5.39313L0.101129 5.31274C0.118654 5.27563 0.138802 5.23981 0.161418 5.20556L4.18065 0.51646C4.29612 0.38143 4.46051 0.297806 4.63765 0.283987C4.81478 0.270167 4.99015 0.327286 5.12517 0.442774Z" fill="white"/>
</svg>
