<svg width="16" height="16" viewBox="0 0 16 16" fill="none" xmlns="http://www.w3.org/2000/svg">
<path d="M14.4733 13.5271C14.5995 13.6523 14.6705 13.8227 14.6705 14.0005C14.6705 14.1782 14.5995 14.3486 14.4733 14.4738C14.3482 14.6 14.1778 14.671 14 14.671C13.8222 14.671 13.6518 14.6 13.5267 14.4738L8 8.94046L2.47333 14.4738C2.34816 14.6 2.17776 14.671 2 14.671C1.82224 14.671 1.65184 14.6 1.52667 14.4738C1.40046 14.3486 1.32947 14.1782 1.32947 14.0005C1.32947 13.8227 1.40046 13.6523 1.52667 13.5271L7.06 8.00046L1.52667 2.4738C1.35756 2.30469 1.29152 2.05822 1.35341 1.82721C1.41531 1.59621 1.59575 1.41578 1.82675 1.35388C2.05775 1.29198 2.30423 1.35803 2.47333 1.52713L8 7.06046L13.5267 1.52713C13.7881 1.26572 14.2119 1.26572 14.4733 1.52713C14.7347 1.78855 14.7347 2.21238 14.4733 2.4738L8.94 8.00046L14.4733 13.5271Z" fill="white"/>
</svg>
