<svg width="17" height="20" viewBox="0 0 17 20" fill="none" xmlns="http://www.w3.org/2000/svg">
<path d="M7.60938 15H4V4.81818H7.6392C8.66335 4.81818 9.54498 5.02202 10.2841 5.42969C11.0232 5.83404 11.5916 6.41572 11.9893 7.17472C12.3904 7.93371 12.5909 8.84186 12.5909 9.89915C12.5909 10.9598 12.3904 11.8712 11.9893 12.6335C11.5916 13.3958 11.0199 13.9808 10.2741 14.3885C9.53172 14.7962 8.64347 15 7.60938 15ZM6.1527 13.1555H7.51989C8.15625 13.1555 8.69152 13.0429 9.12571 12.8175C9.56321 12.5888 9.89134 12.2358 10.1101 11.7585C10.3321 11.2779 10.4432 10.6581 10.4432 9.89915C10.4432 9.14678 10.3321 8.53196 10.1101 8.05469C9.89134 7.57741 9.56487 7.22609 9.13068 7.00071C8.6965 6.77533 8.16122 6.66264 7.52486 6.66264H6.1527V13.1555Z" fill="white"/>
<path d="M6.21564 14H8.2822V16H6.21564V14Z" fill="white"/>
<path d="M6.21564 4H8.2822V6H6.21564V4Z" fill="white"/>
</svg>
