<svg width="15" height="15" viewBox="0 0 15 15" fill="none" xmlns="http://www.w3.org/2000/svg">
<path fill-rule="evenodd" clip-rule="evenodd" d="M5.2846 3.49697e-07L13.2846 0C14.2314 -4.13856e-08 14.9989 0.767511 14.9989 1.71429V9.71428C14.9989 10.6611 14.2314 11.4286 13.2846 11.4286H11.4286V13.2856C11.4286 14.2323 10.6611 14.9999 9.71429 14.9999H1.71429C0.767512 14.9999 0 14.2323 0 13.2856V5.28558C0 4.3388 0.767511 3.57129 1.71429 3.57129H3.57031V1.71429C3.57031 0.767512 4.33782 3.91083e-07 5.2846 3.49697e-07ZM3.57031 4.71443H1.71205C1.39646 4.71443 1.14062 4.97026 1.14062 5.28585L1.14062 13.2859C1.14062 13.6014 1.39646 13.8573 1.71205 13.8573H9.71205C10.0276 13.8573 10.2835 13.6014 10.2835 13.2859V11.4286H5.2846C4.33782 11.4286 3.57031 10.6611 3.57031 9.71429L3.57031 4.71443ZM10.2835 10.286H5.28237C4.96677 10.286 4.71094 10.0302 4.71094 9.71457L4.71094 4.71443L9.71205 4.71443C10.0276 4.71443 10.2835 4.97026 10.2835 5.28585V10.286ZM11.4286 10.286V5.28557C11.4286 4.3388 10.6611 3.57129 9.71428 3.57129L4.71094 3.57129V1.71457C4.71094 1.39897 4.96677 1.14314 5.28237 1.14314L13.2824 1.14314C13.598 1.14314 13.8538 1.39897 13.8538 1.71457V9.71456C13.8538 10.0302 13.598 10.286 13.2824 10.286H11.4286Z" fill="white"/>
</svg>
