<svg width="21" height="20" viewBox="0 0 21 20" fill="none" xmlns="http://www.w3.org/2000/svg">
<path d="M12.3603 14.5H4.1785C3.9535 14.5 3.76941 14.6687 3.76941 14.875V15.625C3.76941 15.8313 3.9535 16 4.1785 16H12.3603C12.5853 16 12.7694 15.8313 12.7694 15.625V14.875C12.7694 14.6687 12.5853 14.5 12.3603 14.5ZM16.3796 6.51484L14.3086 4.61641C14.1501 4.47109 13.8893 4.47109 13.7308 4.61641L13.4419 4.88125C13.2833 5.02656 13.2833 5.26562 13.4419 5.41094L14.4058 6.29453V7.75C14.4058 8.40859 14.9401 8.95234 15.633 9.04375V12.8125C15.633 13.1219 15.3569 13.375 15.0194 13.375C14.6819 13.375 14.4058 13.1219 14.4058 12.8125V12.0625C14.4058 10.9234 13.3984 10 12.1558 10H11.9512V5.5C11.9512 4.67266 11.2174 4 10.3149 4H6.22395C5.3214 4 4.58759 4.67266 4.58759 5.5V13.75H11.9512V11.125H12.1558C12.7208 11.125 13.1785 11.5445 13.1785 12.0625V12.7141C13.1785 13.5977 13.8688 14.4016 14.8276 14.493C15.9271 14.5938 16.8603 13.8016 16.8603 12.8125V7.57656C16.8603 7.17813 16.6865 6.79609 16.3796 6.51484ZM10.3149 8.5H6.22395V5.5H10.3149V8.5Z" fill="white"/>
</svg>
