<svg width="17" height="17" viewBox="0 0 17 17" fill="none" xmlns="http://www.w3.org/2000/svg">
<path d="M4.03465 13.4031C3.79509 13.4031 3.58548 13.3142 3.40584 13.1364C3.22619 12.9586 3.13639 12.7511 3.13642 12.5141L3.1378 3.62522C3.13784 3.38818 3.22771 3.18079 3.40741 3.00304C3.58711 2.82529 3.79674 2.73643 4.0363 2.73647L8.2137 2.73712L8.21357 3.626L4.03617 3.62536L4.03479 12.5142L13.0184 12.5156L13.0191 8.3823L13.9174 8.38244L13.9168 12.5158C13.9168 12.7528 13.8269 12.9602 13.6472 13.138C13.4675 13.3157 13.2579 13.4046 13.0183 13.4045L4.03465 13.4031ZM7.05965 10.1592L6.43089 9.52202L12.391 3.62665L9.11193 3.62614L9.11207 2.73725L13.9183 2.738L13.9176 7.49356L13.0192 7.49342L13.0197 4.26379L7.05965 10.1592Z" fill="white"/>
</svg>
