<svg width="72" height="35" viewBox="0 0 72 35" fill="none" xmlns="http://www.w3.org/2000/svg">
  <path d="M26.6141 29.0081H17.6055V5.76953H26.5227C28.9311 5.76953 31.0118 6.23476 32.7647 7.16521C34.5253 8.0881 35.8819 9.41947 36.8346 11.1593C37.7949 12.8916 38.2751 14.9681 38.2751 17.3888C38.2751 19.8095 37.7987 21.8898 36.846 23.6297C35.8933 25.362 34.5443 26.6934 32.799 27.6238C31.0537 28.5467 28.992 29.0081 26.6141 29.0081ZM23.9618 23.6524H26.3855C27.544 23.6524 28.5309 23.467 29.3464 23.0964C30.1696 22.7257 30.7945 22.0865 31.2213 21.1787C31.6558 20.271 31.873 19.0077 31.873 17.3888C31.873 15.77 31.652 14.5067 31.2099 13.5989C30.7755 12.6912 30.1353 12.052 29.2893 11.6813C28.4509 11.3106 27.422 11.1253 26.2026 11.1253H23.9618V23.6524Z" fill="white"/>
  <path d="M54.3947 0L44.963 34.7785H38.2751L47.7068 0H54.3947Z" fill="#403AF4"/>
</svg>