<svg width="224" height="35" viewBox="0 0 224 35" fill="none" xmlns="http://www.w3.org/2000/svg">
<path d="M36.8251 29.0085H27.8164V5.76993H36.7336C39.142 5.76993 41.2227 6.23515 42.9756 7.16561C44.7362 8.08849 46.0928 9.41987 47.0455 11.1597C48.0059 12.892 48.486 14.9685 48.486 17.3892C48.486 19.8099 48.0097 21.8902 47.057 23.6301C46.1043 25.3624 44.7553 26.6938 43.0099 27.6242C41.2646 28.5471 39.203 29.0085 36.8251 29.0085ZM34.1728 23.6528H36.5964C37.7549 23.6528 38.7419 23.4674 39.5574 23.0968C40.3805 22.7261 41.0055 22.0869 41.4323 21.1791C41.8667 20.2714 42.0839 19.0081 42.0839 17.3892C42.0839 15.7704 41.8629 14.5071 41.4208 13.5993C40.9864 12.6916 40.3462 12.0524 39.5002 11.6817C38.6619 11.311 37.6329 11.1257 36.4135 11.1257H34.1728V23.6528Z" fill="white"/>
<path d="M64.6039 0L55.1723 34.7785H48.4844L57.916 0H64.6039Z" fill="#403AF4"/>
<path d="M64.6055 29.1705V5.608H74.822C76.6168 5.608 78.124 5.84961 79.3435 6.33283C80.5707 6.81604 81.495 7.49868 82.1163 8.38074C82.7452 9.26279 83.0597 10.3021 83.0597 11.4986C83.0597 12.3653 82.8679 13.1554 82.4844 13.8687C82.1086 14.582 81.5794 15.1803 80.8967 15.6635C80.2141 16.139 79.4164 16.4688 78.5037 16.6529V16.883C79.5161 16.9214 80.4365 17.1783 81.2649 17.6539C82.0933 18.1217 82.7529 18.7699 83.2438 19.5982C83.7346 20.4189 83.9801 21.3854 83.9801 22.4975C83.9801 23.7861 83.6426 24.9328 82.9676 25.9375C82.3003 26.9423 81.3493 27.7323 80.1144 28.3076C78.8795 28.8829 77.4068 29.1705 75.6964 29.1705H64.6055ZM71.0023 24.0622H73.9936C75.0675 24.0622 75.8728 23.8628 76.4097 23.4639C76.9466 23.0574 77.2151 22.4592 77.2151 21.6691C77.2151 21.1169 77.0885 20.649 76.8354 20.2655C76.5823 19.882 76.2218 19.5906 75.7539 19.3911C75.2937 19.1917 74.7376 19.092 74.0857 19.092H71.0023V24.0622ZM71.0023 15.1342H73.6255C74.1854 15.1342 74.6801 15.046 75.1096 14.8696C75.5392 14.6932 75.8728 14.4401 76.1106 14.1103C76.356 13.7728 76.4788 13.3625 76.4788 12.8792C76.4788 12.1506 76.218 11.5945 75.6964 11.211C75.1748 10.8198 74.5152 10.6242 73.7175 10.6242H71.0023V15.1342Z" fill="white"/>
<path d="M109.883 17.3892C109.883 20.0124 109.373 22.2252 108.353 24.0277C107.332 25.8225 105.956 27.1839 104.222 28.112C102.489 29.0324 100.556 29.4926 98.4236 29.4926C96.276 29.4926 94.3355 29.0286 92.602 28.1005C90.8763 27.1648 89.5033 25.7995 88.4832 24.0047C87.4707 22.2022 86.9645 19.9971 86.9645 17.3892C86.9645 14.7661 87.4707 12.5571 88.4832 10.7623C89.5033 8.95983 90.8763 7.59839 92.602 6.67798C94.3355 5.7499 96.276 5.28586 98.4236 5.28586C100.556 5.28586 102.489 5.7499 104.222 6.67798C105.956 7.59839 107.332 8.95983 108.353 10.7623C109.373 12.5571 109.883 14.7661 109.883 17.3892ZM103.302 17.3892C103.302 15.978 103.114 14.7891 102.738 13.8227C102.37 12.8486 101.821 12.1122 101.093 11.6137C100.372 11.1074 99.4821 10.8543 98.4236 10.8543C97.3652 10.8543 96.4716 11.1074 95.7429 11.6137C95.0219 12.1122 94.4735 12.8486 94.0977 13.8227C93.7295 14.7891 93.5455 15.978 93.5455 17.3892C93.5455 18.8005 93.7295 19.9932 94.0977 20.9673C94.4735 21.9338 95.0219 22.6701 95.7429 23.1763C96.4716 23.6749 97.3652 23.9242 98.4236 23.9242C99.4821 23.9242 100.372 23.6749 101.093 23.1763C101.821 22.6701 102.37 21.9338 102.738 20.9673C103.114 19.9932 103.302 18.8005 103.302 17.3892Z" fill="white"/>
<path d="M134.039 5.608V29.1705H128.701L120.187 16.791H120.049V29.1705H113.652V5.608H119.083L127.459 17.9415H127.643V5.608H134.039Z" fill="white"/>
<path d="M146.941 29.1705H137.875V5.608H146.849C149.273 5.608 151.367 6.07971 153.131 7.02313C154.903 7.95888 156.268 9.30881 157.227 11.0729C158.193 12.8294 158.677 14.9348 158.677 17.3892C158.677 19.8437 158.197 21.9529 157.238 23.7171C156.28 25.4735 154.922 26.8234 153.166 27.7669C151.409 28.7026 149.334 29.1705 146.941 29.1705ZM144.272 23.7401H146.711C147.877 23.7401 148.87 23.5522 149.691 23.1763C150.519 22.8005 151.148 22.1524 151.578 21.232C152.015 20.3115 152.234 19.0306 152.234 17.3892C152.234 15.7478 152.011 14.4669 151.566 13.5465C151.129 12.6261 150.485 11.978 149.633 11.6022C148.79 11.2263 147.754 11.0384 146.527 11.0384H144.272V23.7401Z" fill="white"/>
<path d="M158.676 14.5747V13.0683H165.773V14.5747H163.128V21.7102H161.321V14.5747H158.676Z" fill="white"/>
<path d="M166.818 13.0683H169.071L171.451 18.8746H171.552L173.932 13.0683H176.186V21.7102H174.413V16.0854H174.342L172.105 21.668H170.898L168.662 16.0643H168.59V21.7102H166.818V13.0683Z" fill="white"/>
</svg>
