<svg width="14" height="14" viewBox="0 0 14 14" fill="none" xmlns="http://www.w3.org/2000/svg">
<path fill-rule="evenodd" clip-rule="evenodd" d="M13.255 10.333H12.6283V5.66634C12.6283 2.72082 10.2405 0.333008 7.29499 0.333008C4.34947 0.333008 1.96166 2.72082 1.96166 5.66634V10.333H1.36833C1.00014 10.333 0.70166 10.6315 0.70166 10.9997C0.70166 11.3679 1.00014 11.6663 1.36833 11.6663H5.29499C5.29499 12.7709 6.19042 13.6663 7.29499 13.6663C8.39956 13.6663 9.29499 12.7709 9.29499 11.6663H13.255C13.6232 11.6663 13.9217 11.3679 13.9217 10.9997C13.9217 10.6315 13.6232 10.333 13.255 10.333ZM7.29499 12.333C6.9268 12.333 6.62833 12.0345 6.62833 11.6663H7.96166C7.96166 12.0345 7.66318 12.333 7.29499 12.333ZM3.29499 10.333H8.62833H11.295V5.66634C11.295 3.4572 9.50413 1.66634 7.29499 1.66634C5.08585 1.66634 3.29499 3.4572 3.29499 5.66634V10.333Z" fill="white"/>
</svg>
