<svg width="16" height="16" viewBox="0 0 16 16" fill="none" xmlns="http://www.w3.org/2000/svg">
<path fill-rule="evenodd" clip-rule="evenodd" d="M4.66642 1.37305H11.3331C12.4609 1.39855 13.3554 2.33183 13.3331 3.45971V13.2464C13.3359 13.7903 13.0205 14.2856 12.5264 14.513C12.3581 14.5863 12.1767 14.6248 11.9931 14.6264C11.6688 14.6244 11.3571 14.5007 11.1198 14.2797L7.99976 11.4397L4.87976 14.2797C4.49533 14.6227 3.94768 14.7136 3.47309 14.513C2.97906 14.2856 2.66363 13.7903 2.66642 13.2464V3.45971C2.64409 2.33183 3.53861 1.39855 4.66642 1.37305ZM8.88643 10.453L11.9998 13.293V3.45971C12.0189 3.06926 11.723 2.73487 11.3331 2.70638H4.66642C4.27654 2.73487 3.98062 3.06926 3.99976 3.45971V13.2464L7.08642 10.453C7.5959 9.98695 8.37695 9.98695 8.88643 10.453Z" fill="white"/>
</svg>
