<svg width="17" height="16" viewBox="0 0 17 16" fill="none" xmlns="http://www.w3.org/2000/svg">
<path d="M14.8815 7.67301L14.4443 7.91586L14.4485 7.92301L14.8815 7.67301ZM14.8815 8.33967L14.4484 8.08964L14.4444 8.09685L14.8815 8.33967ZM1.7148 8.33967L2.15194 8.09682L2.14782 8.08967L1.7148 8.33967ZM1.7148 7.67301L2.14788 7.92304L2.15188 7.91583L1.7148 7.67301ZM3.74814 9.00634L3.34328 9.29976L4.23467 8.89107L3.74814 9.00634ZM3.08147 7.97967L2.64873 7.7292L2.50376 7.97967L2.64873 8.23015L3.08147 7.97967ZM3.74814 6.95301L4.23467 7.06828L3.34328 6.65959L3.74814 6.95301ZM12.8415 6.96634L13.246 6.67251L12.3548 7.08099L12.8415 6.96634ZM13.5081 7.99967L13.9426 8.24715L14.0836 7.99967L13.9426 7.7522L13.5081 7.99967ZM12.8415 9.03301L12.3548 8.91836L13.246 9.32683L12.8415 9.03301ZM15.3186 7.43019C13.5386 4.2262 11.0616 2.33301 8.2948 2.33301V3.33301C10.5547 3.33301 12.7577 4.87982 14.4444 7.91583L15.3186 7.43019ZM15.3145 8.58967C15.5229 8.22871 15.5229 7.78398 15.3145 7.42301L14.4485 7.92301C14.4782 7.97457 14.4782 8.03811 14.4485 8.08967L15.3145 8.58967ZM8.2948 13.6797C11.0616 13.6797 13.5386 11.7865 15.3186 8.5825L14.4444 8.09685C12.7577 11.1329 10.5547 12.6797 8.2948 12.6797V13.6797ZM1.27773 8.5825C3.05741 11.7859 5.52757 13.6797 8.2948 13.6797V12.6797C6.03538 12.6797 3.83887 11.1334 2.15188 8.09685L1.27773 8.5825ZM1.28179 7.42301C1.07339 7.78398 1.07339 8.22871 1.28179 8.58967L2.14782 8.08967C2.11805 8.03811 2.11805 7.97457 2.14782 7.92301L1.28179 7.42301ZM8.2948 2.33301C5.52757 2.33301 3.05741 4.22676 1.27773 7.43019L2.15188 7.91583C3.83887 4.87925 6.03538 3.33301 8.2948 3.33301V2.33301ZM4.15299 8.71292C3.9234 8.39614 3.7102 8.0678 3.51421 7.7292L2.64873 8.23015C2.86183 8.59831 3.09365 8.95532 3.34328 9.29976L4.15299 8.71292ZM3.26161 6.83774C3.0837 7.58864 3.0837 8.37071 3.26161 9.12161L4.23467 8.89107C4.09268 8.29177 4.09268 7.66758 4.23467 7.06828L3.26161 6.83774ZM3.51421 8.23015C3.7102 7.89155 3.9234 7.56321 4.15299 7.24643L3.34328 6.65959C3.09365 7.00403 2.86183 7.36104 2.64873 7.7292L3.51421 8.23015ZM4.46147 7.99967C4.46147 10.1168 6.17771 11.833 8.2948 11.833V10.833C6.73 10.833 5.46147 9.56448 5.46147 7.99967H4.46147ZM8.2948 4.16634C6.17771 4.16634 4.46147 5.88258 4.46147 7.99967H5.46147C5.46147 6.43487 6.73 5.16634 8.2948 5.16634V4.16634ZM12.1281 7.99967C12.1281 5.88258 10.4119 4.16634 8.2948 4.16634V5.16634C9.85961 5.16634 11.1281 6.43487 11.1281 7.99967H12.1281ZM8.2948 11.833C10.4119 11.833 12.1281 10.1168 12.1281 7.99967H11.1281C11.1281 9.56448 9.85961 10.833 8.2948 10.833V11.833ZM12.4369 7.26017C12.6672 7.57719 12.8797 7.90669 13.0737 8.24715L13.9426 7.7522C13.7305 7.37976 13.4979 7.01932 13.246 6.67251L12.4369 7.26017ZM13.3282 9.14765C13.506 8.39267 13.506 7.60668 13.3282 6.8517L12.3548 7.08099C12.4971 7.68518 12.4971 8.31417 12.3548 8.91836L13.3282 9.14765ZM13.0737 7.7522C12.8797 8.09266 12.6672 8.42215 12.4369 8.73918L13.246 9.32683C13.4979 8.98003 13.7305 8.61959 13.9426 8.24715L13.0737 7.7522Z" fill="white"/>
</svg>
