<svg width="24" height="25" viewBox="0 0 24 25" fill="none" xmlns="http://www.w3.org/2000/svg">
<path fill-rule="evenodd" clip-rule="evenodd" d="M17 9.27832C17.8284 9.27832 18.5 8.60674 18.5 7.77832C18.5 6.94989 17.8284 6.27832 17 6.27832C16.1716 6.27832 15.5 6.94989 15.5 7.77832C15.5 8.60674 16.1716 9.27832 17 9.27832ZM17 10.7783C18.6568 10.7783 20 9.43517 20 7.77832C20 6.12146 18.6568 4.77832 17 4.77832C15.3431 4.77832 14 6.12146 14 7.77832C14 9.43517 15.3431 10.7783 17 10.7783Z" fill="white"/>
<path fill-rule="evenodd" clip-rule="evenodd" d="M17 19.2783C17.8284 19.2783 18.5 18.6067 18.5 17.7783C18.5 16.9499 17.8284 16.2783 17 16.2783C16.1716 16.2783 15.5 16.9499 15.5 17.7783C15.5 18.6067 16.1716 19.2783 17 19.2783ZM17 20.7783C18.6568 20.7783 20 19.4352 20 17.7783C20 16.1215 18.6568 14.7783 17 14.7783C15.3431 14.7783 14 16.1215 14 17.7783C14 19.4352 15.3431 20.7783 17 20.7783Z" fill="white"/>
<path fill-rule="evenodd" clip-rule="evenodd" d="M7 9.27832C7.82842 9.27832 8.49999 8.60674 8.49999 7.77832C8.49999 6.94989 7.82842 6.27832 7 6.27832C6.17157 6.27832 5.5 6.94989 5.5 7.77832C5.5 8.60674 6.17157 9.27832 7 9.27832ZM7 10.7783C8.65685 10.7783 9.99999 9.43517 9.99999 7.77832C9.99999 6.12146 8.65685 4.77832 7 4.77832C5.34314 4.77832 4 6.12146 4 7.77832C4 9.43517 5.34314 10.7783 7 10.7783Z" fill="white"/>
<path fill-rule="evenodd" clip-rule="evenodd" d="M7 19.2783C7.82842 19.2783 8.49999 18.6067 8.49999 17.7783C8.49999 16.9499 7.82842 16.2783 7 16.2783C6.17157 16.2783 5.5 16.9499 5.5 17.7783C5.5 18.6067 6.17157 19.2783 7 19.2783ZM7 20.7783C8.65685 20.7783 9.99999 19.4352 9.99999 17.7783C9.99999 16.1215 8.65685 14.7783 7 14.7783C5.34314 14.7783 4 16.1215 4 17.7783C4 19.4352 5.34314 20.7783 7 20.7783Z" fill="white"/>
<path d="M6.5 10.2783H8L8 15.2783H6.5L6.5 10.2783Z" fill="white"/>
<path d="M16 10.2783H17.5V15.2783H16V10.2783Z" fill="white"/>
<path d="M9.5 18.7783V17.2783H14.5V18.7783H9.5Z" fill="white"/>
<path d="M9.5 8.77832V7.27832H14.5V8.77832H9.5Z" fill="white"/>
</svg>
