<svg width="16" height="17" viewBox="0 0 16 17" fill="none" xmlns="http://www.w3.org/2000/svg">
  <path fill-rule="evenodd" clip-rule="evenodd" d="M6.81869 5.49982L6.81869 2.49253C6.81856 1.4605 5.97903 0.621094 4.94712 0.621094L2.71446 0.621094C1.68255 0.621094 0.843018 1.46059 0.843018 2.49253L0.843018 5.49982C0.843018 6.53173 1.68251 7.37126 2.71446 7.37126L4.94725 7.37126C5.97916 7.37126 6.81869 6.53176 6.81869 5.49982ZM6.72439 5.49982L6.72439 2.49253C6.72426 1.51257 5.92695 0.715395 4.94712 0.715395L2.71446 0.715395C1.80825 0.715395 1.05818 1.39735 0.950564 2.27499C1.05831 1.39749 1.80832 0.715686 2.71442 0.715686L4.94709 0.715686H4.94712C5.92695 0.715686 6.72423 1.51286 6.72435 2.49282L6.72435 5.50011C6.72435 5.57183 6.72008 5.64257 6.71178 5.71209C6.72011 5.64247 6.72439 5.57164 6.72439 5.49982ZM5.71864 5.49982C5.71864 5.92514 5.37244 6.27134 4.94712 6.27134L2.71446 6.27121C2.28914 6.27121 1.94294 5.92501 1.94294 5.49969L1.94294 2.4924C1.94294 2.06708 2.28914 1.72089 2.71446 1.72089L4.94725 1.72089C5.37257 1.72089 5.71877 2.06708 5.71877 2.4924L5.71864 5.49982ZM5.80695 5.60196C5.75625 6.03141 5.38997 6.36564 4.94712 6.36564L2.71446 6.36551C2.23706 6.36551 1.84864 5.97709 1.84864 5.49969L1.84864 2.4924C1.84864 2.45609 1.85089 2.42029 1.85525 2.38514C1.85086 2.42038 1.8486 2.45628 1.8486 2.4927L1.8486 5.49998C1.8486 5.97739 2.23702 6.3658 2.71442 6.3658L4.94709 6.36593C5.39004 6.36593 5.75639 6.03155 5.80695 5.60196ZM4.94709 7.96042L2.71442 7.96042C1.79876 7.96042 1.04249 8.65668 0.947369 9.54757C1.04234 8.65652 1.79868 7.96008 2.71446 7.96008L4.94712 7.96008C5.92695 7.96008 6.72426 8.75739 6.72439 9.73722L6.72439 14.7495C6.72439 14.7991 6.72235 14.8482 6.71834 14.8967C6.72233 14.8483 6.72435 14.7993 6.72435 14.7498L6.72435 9.73755C6.72423 8.75772 5.92695 7.96042 4.94712 7.96042H4.94709ZM5.80064 14.8955C5.73116 15.3037 5.37484 15.6156 4.94709 15.6156L2.71442 15.6154C2.23702 15.6154 1.8486 15.227 1.8486 14.7496L1.8486 9.73736C1.8486 9.71125 1.84976 9.68541 1.85204 9.65988C1.84978 9.6853 1.84864 9.71103 1.84864 9.73702L1.84864 14.7493C1.84864 15.2267 2.23706 15.6151 2.71446 15.6151L4.94712 15.6152C5.37476 15.6152 5.73102 15.3036 5.80064 14.8955ZM6.81869 14.7495L6.81869 9.73722C6.81856 8.70532 5.97904 7.86578 4.94712 7.86578L2.71446 7.86578C1.68255 7.86578 0.843018 8.70527 0.843018 9.73722L0.843018 14.7495C0.843018 15.7814 1.68251 16.6209 2.71446 16.6209H4.94725C5.97916 16.6209 6.81869 15.7814 6.81869 14.7495ZM5.71864 14.7494C5.71864 15.1747 5.37244 15.5209 4.94712 15.5209L2.71446 15.5208C2.28914 15.5208 1.94294 15.1746 1.94294 14.7493L1.94294 9.73702C1.94294 9.3117 2.28914 8.96551 2.71446 8.96551H4.94725C5.37257 8.96551 5.71877 9.3117 5.71877 9.73702L5.71864 14.7494ZM10.2113 16.3141C10.4621 16.4496 10.7488 16.5265 11.0532 16.5265L13.2859 16.5264C14.2657 16.5264 15.063 15.7291 15.063 14.7492V11.742C15.063 11.0899 14.7099 10.5187 14.1848 10.2095C14.7097 10.5188 15.0626 11.0898 15.0626 11.7417V14.749C15.0626 15.7289 14.2653 16.5262 13.2855 16.5262L11.0528 16.5263C10.7486 16.5263 10.462 16.4494 10.2113 16.3141ZM10.6429 15.5115C10.3719 15.3651 10.1874 15.0783 10.1874 14.7492V11.742C10.1874 11.2646 10.5758 10.8761 11.0532 10.8761L13.2859 10.8763C13.4312 10.8763 13.5682 10.9122 13.6886 10.9757C13.5681 10.9121 13.4309 10.876 13.2855 10.876L11.0528 10.8759C10.5754 10.8759 10.187 11.2643 10.187 11.7417V14.749C10.187 15.0783 10.3717 15.3652 10.6429 15.5115ZM13.3802 9.873V9.87065H11.0532C10.0213 9.87065 9.18176 10.7101 9.18176 11.7421V14.7494C9.18176 15.7813 10.0213 16.6208 11.0532 16.6208L13.2859 16.6207C14.3178 16.6207 15.1573 15.7812 15.1573 14.7492V11.742C15.1573 10.7417 14.3685 9.92227 13.3802 9.873ZM14.0574 14.7494C14.0574 15.1747 13.7112 15.5209 13.2859 15.5209L11.0532 15.5208C10.6279 15.5208 10.2817 15.1746 10.2817 14.7492V11.742C10.2817 11.3166 10.6279 10.9704 11.0532 10.9704L13.2859 10.9706C13.7112 10.9706 14.0574 11.3168 14.0574 11.7421V14.7494ZM13.2855 0.715686L11.0528 0.715686C10.6777 0.715686 10.3294 0.832523 10.0422 1.03171C10.3294 0.832349 10.6779 0.715395 11.0532 0.715395L13.2859 0.715395L13.2882 0.715396C14.267 0.716669 15.063 1.51336 15.063 2.49241L15.063 7.50466C15.063 8.09291 14.7756 8.61535 14.334 8.93899C14.7754 8.61532 15.0626 8.09302 15.0626 7.50495L15.0626 2.4927C15.0626 1.51287 14.2653 0.715689 13.2855 0.715689V0.715686ZM13.7751 8.21875C13.6357 8.31464 13.467 8.37083 13.2855 8.37083H11.0528C10.5754 8.37083 10.187 7.98241 10.187 7.50501L10.187 2.49276C10.187 2.20184 10.3312 1.94397 10.5519 1.7869C10.3314 1.944 10.1874 2.20173 10.1874 2.49247L10.1874 7.50472C10.1874 7.98212 10.5758 8.37054 11.0532 8.37054H13.2859C13.4673 8.37054 13.6358 8.31447 13.7751 8.21875ZM13.3802 0.623443V0.621094L11.0532 0.621094C10.0213 0.621094 9.18176 1.46059 9.18176 2.49253L9.18176 7.50479C9.18176 8.5367 10.0213 9.37623 11.0532 9.37623L13.2859 9.3761C14.3178 9.3761 15.1573 8.5366 15.1573 7.50466L15.1573 2.49241C15.1573 1.49211 14.3685 0.672719 13.3802 0.623443ZM14.0574 7.50472C14.0574 7.93004 13.7112 8.27624 13.2859 8.27624H11.0532C10.6279 8.27624 10.2817 7.93004 10.2817 7.50472L10.2817 2.49247C10.2817 2.06715 10.6279 1.72095 11.0532 1.72095L13.2859 1.72108C13.7112 1.72108 14.0574 2.06727 14.0574 2.49259L14.0574 7.50472Z" fill="white"/>
</svg>