<svg width="24" height="24" viewBox="0 0 24 24" fill="none" xmlns="http://www.w3.org/2000/svg">
<path d="M18.9452 11.5606L16.0148 14.5223C15.8742 14.6644 15.8077 14.8303 15.8156 15.0198C15.8234 15.2094 15.8976 15.3752 16.0383 15.5174C16.1789 15.6595 16.3469 15.7306 16.5423 15.7306C16.7376 15.7306 16.9056 15.6595 17.0463 15.5174L20.469 12.0582C20.6096 11.916 20.6799 11.7502 20.6799 11.5606C20.6799 11.3711 20.6096 11.2052 20.469 11.0631L17.0463 7.60386C16.9056 7.4617 16.7376 7.39062 16.5423 7.39062C16.3469 7.39062 16.1789 7.4617 16.0383 7.60386C15.8976 7.74602 15.8273 7.91582 15.8273 8.11327C15.8273 8.31071 15.8976 8.48051 16.0383 8.62267L18.9452 11.5606Z" fill="white"/>
<rect x="4" y="6" width="8.34" height="1.39" rx="0.695" fill="white"/>
<rect x="4" y="10.8652" width="11.12" height="1.39" rx="0.695" fill="white"/>
<rect x="4" y="15.7295" width="8.34" height="1.39" rx="0.695" fill="white"/>
</svg>
