<svg width="24" height="25" viewBox="0 0 24 25" fill="none" xmlns="http://www.w3.org/2000/svg">
<path d="M18.6365 13.2043C18.9572 13.2043 19.1202 13.6948 18.8967 13.9852L14.6015 19.558C14.378 19.8484 14.0127 19.8517 13.7841 19.568C13.5553 19.2842 13.5527 18.8204 13.7762 18.5302L16.7466 14.6726L4.59178 14.6728C4.27893 14.6728 4.01088 14.3626 4.0003 13.9654C3.98986 13.5484 4.25267 13.2046 4.57856 13.2046L18.6365 13.2043ZM18.994 10.645C18.9836 11.0421 18.7154 11.3524 18.4025 11.3524L4.36559 11.3524C4.0423 11.3524 3.87926 10.8585 4.10539 10.5649L8.39797 4.99861C8.62147 4.70824 8.98681 4.70493 9.21542 4.98867C9.44415 5.2724 9.44676 5.73619 9.22325 6.02641L6.24778 9.88401L18.4156 9.88401C18.7441 9.88401 19.0072 10.2279 18.994 10.645Z" fill="white" stroke="white" stroke-width="0.4"/>
</svg>
