<svg width="24" height="25" viewBox="0 0 24 25" fill="none" xmlns="http://www.w3.org/2000/svg">
<path d="M12.0216 4.77852C12.186 4.78109 12.3423 4.83555 12.4568 4.93008C12.5712 5.02461 12.6346 5.15162 12.633 5.2833V6.34188C15.699 6.59321 18.0928 8.67173 18.0928 11.1963V11.6211H18.3827C18.5505 11.6181 18.7125 11.6694 18.8325 11.7635C18.9525 11.8576 19.0201 11.9865 19.0201 12.1211C19.0201 12.2557 18.9525 12.3846 18.8325 12.4787C18.7125 12.5728 18.5504 12.6241 18.3825 12.6211L5.63771 12.6211C5.46986 12.6241 5.3077 12.5728 5.18772 12.4787C5.06775 12.3846 5.00011 12.2557 5.00011 12.1211C5.00011 11.9865 5.06775 11.8576 5.18772 11.7635C5.3077 11.6694 5.46985 11.6181 5.63771 11.6211H5.92749V11.1963C5.92749 8.67073 8.31864 6.59187 11.3858 6.34188V5.2833C11.3841 5.14815 11.4509 5.01813 11.5706 4.92306C11.6905 4.82797 11.8531 4.77585 12.0216 4.77852ZM12.0387 7.3184C12.0184 7.3193 11.9981 7.3193 11.9778 7.3184C9.30126 7.33101 7.1747 9.04693 7.1747 11.1963V11.6211L16.8456 11.6211V11.1963C16.8456 9.04759 14.7141 7.33212 12.0387 7.3184ZM16.7897 13.5917C16.9562 13.593 17.115 13.6476 17.231 13.7433C17.3469 13.8391 17.4104 13.968 17.4072 14.1015L17.4072 18.2977C17.4108 18.4321 17.3468 18.5622 17.2294 18.6584C17.1121 18.7546 16.9513 18.8088 16.7836 18.8088C16.6158 18.8088 16.455 18.7546 16.3377 18.6584C16.2203 18.5622 16.1563 18.4321 16.1601 18.2977L16.1601 14.1015C16.1567 13.9663 16.2219 13.8359 16.3404 13.7399C16.459 13.6438 16.6212 13.5903 16.7897 13.5917ZM12.022 13.5917C12.1873 13.5943 12.3446 13.6495 12.4591 13.745C12.5738 13.8407 12.6364 13.9689 12.6332 14.1015V18.2977C12.6369 18.4322 12.5728 18.5622 12.4555 18.6584C12.3382 18.7546 12.1774 18.8088 12.0097 18.8088C11.8418 18.8088 11.6811 18.7546 11.5637 18.6584C11.4464 18.5622 11.3824 18.4322 11.3861 18.2977V14.1015C11.3828 13.9654 11.4486 13.8343 11.5686 13.7381C11.6886 13.6419 11.8524 13.5891 12.022 13.5917ZM7.24813 13.5917C7.41376 13.594 7.57118 13.649 7.68615 13.7447C7.80111 13.8403 7.86388 13.9687 7.86054 14.1015V18.2976C7.8643 18.4321 7.80028 18.5622 7.68294 18.6584C7.56561 18.7546 7.40485 18.8088 7.23699 18.8088C7.06927 18.8088 6.90851 18.7546 6.79117 18.6584C6.67384 18.5622 6.60982 18.4321 6.61343 18.2976V14.1015C6.61023 13.9656 6.67593 13.8346 6.79563 13.7384C6.91533 13.6422 7.07876 13.5893 7.24813 13.5917ZM18.4427 19.7781C18.6619 19.7904 18.8567 19.8944 18.956 20.0516C19.0552 20.2089 19.0439 20.3964 18.9265 20.5452C18.809 20.6941 18.6026 20.7826 18.3828 20.7782H5.63797C5.47012 20.7811 5.30811 20.7297 5.18813 20.6356C5.06815 20.5416 5.00065 20.4127 5.00065 20.2782C5.00065 20.1436 5.06815 20.0147 5.18813 19.9206C5.3081 19.8265 5.47025 19.7752 5.63811 19.7782H18.3829C18.4028 19.7774 18.4228 19.7773 18.4427 19.7781Z" fill="white" stroke="white" stroke-width="0.5"/>
</svg>
