<svg width="24" height="25" viewBox="0 0 24 25" fill="none" xmlns="http://www.w3.org/2000/svg">
<path fill-rule="evenodd" clip-rule="evenodd" d="M5 11.8929C5 12.3896 5.40261 12.7922 5.89925 12.7922C6.38186 12.7777 6.76691 12.3847 6.77152 11.9019C6.8083 9.81744 8.04269 7.94067 9.94214 7.0813C11.8416 6.22194 14.0662 6.53377 15.6561 7.88227H15.3684C14.8717 7.88227 14.4691 8.28487 14.4691 8.78152C14.4691 9.27816 14.8717 9.68077 15.3684 9.68077H17.9132C18.4099 9.68077 18.8125 9.27816 18.8125 8.78152V6.23664C18.8125 5.74 18.4099 5.33739 17.9132 5.33739C17.4166 5.33739 17.014 5.74 17.014 6.23664V6.63231C14.9144 4.73704 11.899 4.248 9.308 5.38253C6.71701 6.51706 5.03127 9.0646 5 11.8929ZM18.2101 12.5314C18.2101 12.0348 18.6127 11.6322 19.1093 11.6322C19.599 11.637 19.9947 12.0328 19.9996 12.5224C20.0296 14.4576 19.2698 16.3215 17.8954 17.6841C15.1861 20.3797 10.8419 20.4864 8.0036 17.9269V18.3226C8.0036 18.8192 7.60099 19.2218 7.10435 19.2218C6.6077 19.2218 6.2051 18.8192 6.2051 18.3226V15.7777C6.2051 15.2811 6.6077 14.8784 7.10435 14.8784H9.6762C10.1728 14.8784 10.5755 15.2811 10.5755 15.7777C10.5755 16.2743 10.1728 16.6769 9.6762 16.6769H9.36146C10.9699 18.0166 13.208 18.3051 15.1036 17.4171C16.9992 16.529 18.21 14.6247 18.2101 12.5314Z" fill="white"/>
</svg>
