<svg width="24" height="25" viewBox="0 0 24 25" fill="none" xmlns="http://www.w3.org/2000/svg">
<path d="M15.8273 14.5888C16.1606 14.5888 16.4308 14.3186 16.4308 13.9853C16.4308 13.652 16.1606 13.3818 15.8273 13.3818C15.4941 13.3818 15.2239 13.652 15.2239 13.9853C15.2239 14.3186 15.4941 14.5888 15.8273 14.5888Z" fill="white"/>
<path fill-rule="evenodd" clip-rule="evenodd" d="M17.0346 7.34747V6.744C17.0346 5.7441 16.2241 4.93359 15.2242 4.93359L4.96519 4.93359C3.9653 4.93359 3.15479 5.7441 3.15479 6.744L3.15479 18.8134C3.15479 19.8133 3.9653 20.6238 4.96519 20.6238H17.638C18.6379 20.6238 19.4485 19.8133 19.4485 18.8134L19.4485 15.9386C19.8187 15.6071 20.0519 15.1252 20.0519 14.5891V13.3822C20.0519 12.846 19.8188 12.3642 19.4485 12.0327V9.15788C19.4485 8.15798 18.6379 7.34747 17.638 7.34747H17.0346ZM4.36172 7.45052C4.55044 7.38371 4.75356 7.34747 4.96519 7.34747L15.8276 7.34747V6.744C15.8276 6.41074 15.5574 6.14053 15.2242 6.14053L4.96519 6.14053C4.63194 6.14053 4.36172 6.41074 4.36172 6.744V7.45052ZM13.4138 13.9856C13.4138 15.3187 14.4945 16.3994 15.8276 16.3994H18.2415V18.8133C18.2415 19.1466 17.9713 19.4168 17.638 19.4168H4.96519C4.63194 19.4168 4.36172 19.1466 4.36172 18.8133L4.36172 9.15782C4.36172 8.82456 4.63194 8.55435 4.96519 8.55435L17.638 8.55435C17.9713 8.55435 18.2415 8.82456 18.2415 9.15782V11.5717L15.8276 11.5717C14.4945 11.5717 13.4138 12.6524 13.4138 13.9856ZM15.8276 12.7786C15.161 12.7786 14.6207 13.3189 14.6207 13.9856C14.6207 14.6522 15.161 15.1925 15.8276 15.1925H18.2415C18.5748 15.1925 18.845 14.9223 18.845 14.589V13.3821C18.845 13.0488 18.5748 12.7786 18.2415 12.7786L15.8276 12.7786Z" fill="white"/>
<path fill-rule="evenodd" clip-rule="evenodd" d="M17.1891 6.74363V7.1922H17.6377C18.7231 7.1922 19.603 8.07206 19.603 9.15751V11.9648C19.9747 12.3222 20.2065 12.8251 20.2065 13.3818V14.5887C20.2065 15.1454 19.9747 15.6483 19.603 16.0057V18.813C19.603 19.8985 18.7231 20.7783 17.6377 20.7783H4.96482C3.87937 20.7783 2.99951 19.8985 2.99951 18.813L2.99951 6.74363C2.99951 5.65818 3.87937 4.77832 4.96482 4.77832L15.2238 4.77832C16.3092 4.77832 17.1891 5.65818 17.1891 6.74363ZM19.4481 15.9382V18.813C19.4481 19.8129 18.6376 20.6234 17.6377 20.6234H4.96482C3.96492 20.6234 3.15441 19.8129 3.15441 18.813L3.15441 6.74363C3.15441 5.74373 3.96492 4.93322 4.96482 4.93322L15.2238 4.93322C16.2237 4.93322 17.0342 5.74373 17.0342 6.74363V7.3471H17.6377C18.6376 7.3471 19.4481 8.15761 19.4481 9.15751V12.0323C19.8184 12.3638 20.0515 12.8457 20.0515 13.3818V14.5887C20.0515 15.1248 19.8184 15.6067 19.4481 15.9382ZM4.51625 7.24363C4.66045 7.20995 4.81064 7.1922 4.96482 7.1922L15.6724 7.1922V6.74363C15.6724 6.49592 15.4715 6.29506 15.2238 6.29506L4.96482 6.29506C4.71711 6.29506 4.51625 6.49592 4.51625 6.74363V7.24363ZM15.8273 6.74363C15.8273 6.41037 15.5571 6.14016 15.2238 6.14016L4.96482 6.14016C4.63156 6.14016 4.36135 6.41037 4.36135 6.74363V7.45015C4.41199 7.43222 4.46366 7.41649 4.51625 7.40308C4.65968 7.3665 4.80997 7.3471 4.96482 7.3471L15.8273 7.3471V6.74363ZM15.8273 16.554C14.4086 16.554 13.2585 15.4039 13.2585 13.9852C13.2585 12.5665 14.4086 11.4164 15.8273 11.4164L18.0862 11.4164V9.15745C18.0862 8.90974 17.8854 8.70888 17.6377 8.70888L4.96482 8.70888C4.71711 8.70888 4.51625 8.90974 4.51625 9.15745L4.51625 18.813C4.51625 19.0607 4.71711 19.2615 4.96482 19.2615H17.6377C17.8854 19.2615 18.0862 19.0607 18.0862 18.813V16.554H15.8273ZM15.8273 12.9332C15.2462 12.9332 14.7752 13.4041 14.7752 13.9852C14.7752 14.5663 15.2462 15.0372 15.8273 15.0372H18.2411C18.4889 15.0372 18.6897 14.8364 18.6897 14.5887V13.3817C18.6897 13.134 18.4889 12.9332 18.2411 12.9332H15.8273ZM15.8273 16.3991C14.4941 16.3991 13.4134 15.3183 13.4134 13.9852C13.4134 12.652 14.4941 11.5713 15.8273 11.5713L18.2411 11.5713V9.15745C18.2411 8.82419 17.9709 8.55398 17.6377 8.55398L4.96482 8.55398C4.63156 8.55398 4.36135 8.82419 4.36135 9.15745L4.36135 18.813C4.36135 19.1462 4.63156 19.4164 4.96482 19.4164H17.6377C17.9709 19.4164 18.2411 19.1462 18.2411 18.813V16.3991H15.8273ZM14.6203 13.9852C14.6203 13.3186 15.1606 12.7783 15.8273 12.7783L18.2411 12.7783C18.5744 12.7783 18.8446 13.0485 18.8446 13.3817V14.5887C18.8446 14.9219 18.5744 15.1921 18.2411 15.1921H15.8273C15.1606 15.1921 14.6203 14.6518 14.6203 13.9852Z" fill="white"/>
</svg>
